<svg width="19" height="19" viewBox="0 0 19 19" fill="none" xmlns="http://www.w3.org/2000/svg">
<path d="M17.9894 0H1.01064C0.452362 0 0 0.452564 0 1.01064V17.9894C0 18.5474 0.452362 19 1.01064 19H17.9894C18.5476 19 19 18.5474 19 17.9894V1.01064C19 0.452564 18.5476 0 17.9894 0ZM15.1331 10.7012C15.6509 11.2066 16.1985 11.6824 16.6636 12.2409C16.8694 12.4874 17.0634 12.7421 17.2112 13.0289C17.4216 13.4381 17.2316 13.8874 16.8649 13.9114L14.5898 13.9108C14.0024 13.9591 13.5347 13.7226 13.1401 13.321C12.8258 13.0006 12.5335 12.6586 12.2305 12.3278C12.107 12.1917 11.9761 12.0638 11.8212 11.9627C11.5112 11.7614 11.2417 11.8229 11.0637 12.1465C10.8826 12.4759 10.8407 12.8414 10.8241 13.2086C10.7989 13.7453 10.6372 13.8854 10.0989 13.9102C8.9488 13.9644 7.85711 13.7898 6.84303 13.2103C5.94781 12.6989 5.25552 11.9765 4.65237 11.1595C3.4768 9.5661 2.57652 7.81709 1.76801 6.01795C1.58589 5.61268 1.7191 5.3958 2.1656 5.38751C2.90862 5.37276 3.65144 5.37478 4.39345 5.3867C4.69583 5.39135 4.89573 5.56437 5.01155 5.84937C5.41278 6.83677 5.90516 7.77626 6.52165 8.64743C6.68598 8.87927 6.85374 9.1107 7.09226 9.27463C7.35583 9.45573 7.55674 9.39611 7.68105 9.10201C7.76049 8.91444 7.79485 8.71514 7.81183 8.51463C7.87085 7.8282 7.87793 7.14178 7.77605 6.45798C7.71238 6.03028 7.47145 5.75397 7.04496 5.67312C6.82787 5.63188 6.85961 5.55144 6.96512 5.42753C7.14824 5.21287 7.32086 5.08028 7.66367 5.08028L10.2349 5.07987C10.6404 5.15911 10.7306 5.34102 10.7857 5.74912L10.7882 8.60579C10.7839 8.76385 10.8672 9.23198 11.151 9.33547C11.378 9.41046 11.5286 9.22834 11.6644 9.08402C12.2805 8.43014 12.7195 7.65781 13.113 6.8588C13.2863 6.50649 13.4364 6.14145 13.582 5.7762C13.6897 5.50596 13.8583 5.37296 14.1631 5.37781L16.6383 5.38044C16.7111 5.38044 16.7857 5.38124 16.8579 5.39317C17.2746 5.46493 17.3888 5.64441 17.2601 6.0515C17.0571 6.69083 16.662 7.22364 16.2755 7.75766C15.8626 8.32867 15.4217 8.88088 15.0118 9.45472C14.6363 9.98106 14.6666 10.2454 15.1331 10.7012Z" fill="#FFB72D"/>
</svg>
