<svg width="19" height="19" viewBox="0 0 19 19" fill="none" xmlns="http://www.w3.org/2000/svg">
<path d="M17.9894 0H1.01064C0.452564 0 0 0.452564 0 1.01064V17.9894C0 18.5474 0.452564 19 1.01064 19H17.9894C18.5476 19 19 18.5474 19 17.9894V1.01064C19 0.452564 18.5476 0 17.9894 0ZM5.339 17.0194H2.21653V6.97401H5.3388L5.339 17.0194ZM3.77837 5.60096C2.77764 5.60096 1.96751 4.78982 1.96751 3.7903C1.96771 2.79219 2.77804 1.98085 3.77837 1.98085C4.77668 1.98085 5.58762 2.79179 5.58762 3.7903C5.58762 4.78982 4.77668 5.60096 3.77837 5.60096ZM17.0325 17.0191H13.9129V12.1343C13.9129 10.9693 13.8916 9.47069 12.29 9.47069C10.6663 9.47069 10.4166 10.7396 10.4166 12.0496V17.0191H7.29661V6.97401H10.2913V8.34646H10.3332C10.7502 7.55674 11.7689 6.72398 13.2871 6.72398C16.4485 6.72398 17.0323 8.80468 17.0323 11.5089V17.0191H17.0325Z" fill="#FFB72D"/>
</svg>
