<svg width="19" height="19" viewBox="0 0 19 19" fill="none" xmlns="http://www.w3.org/2000/svg">
<rect width="19" height="19" rx="1" fill="#FFB72D"/>
<path d="M2.31321 4.78777C4.3719 6.53126 7.98427 9.59858 9.04599 10.555C9.18851 10.6841 9.34139 10.7497 9.50009 10.7497C9.65847 10.7497 9.81107 10.6847 9.95328 10.5562C11.0159 9.59888 14.6283 6.53126 16.687 4.78777C16.8152 4.67943 16.8347 4.489 16.7309 4.35655C16.4911 4.05049 16.1334 3.875 15.7501 3.875H3.2501C2.86681 3.875 2.50912 4.05049 2.26927 4.35658C2.1655 4.489 2.18504 4.67943 2.31321 4.78777Z" fill="black"/>
<path d="M16.8187 5.73263C16.708 5.68106 16.5777 5.69905 16.4855 5.7778C14.2024 7.71321 11.2886 10.194 10.3719 11.0201C9.85733 11.4846 9.14322 11.4846 8.62748 11.0195C7.65031 10.1391 4.3782 7.35737 2.51451 5.77777C2.42173 5.69902 2.29112 5.68165 2.18126 5.7326C2.07081 5.78389 2 5.89437 2 6.01613V13.875C2 14.5644 2.5606 15.125 3.25001 15.125H15.75C16.4394 15.125 17 14.5644 17 13.875V6.01613C17 5.89437 16.9292 5.7836 16.8187 5.73263Z" fill="black"/>
</svg>
