<svg width="19" height="19" viewBox="0 0 19 19" fill="none" xmlns="http://www.w3.org/2000/svg">
<rect width="19" height="19" rx="1" fill="#FFB72D"/>
<g clip-path="url(#clip0)">
<path d="M15.8766 12.1894C15.0195 12.1894 14.1779 12.0553 13.3804 11.7918C12.9896 11.6585 12.5092 11.7808 12.2707 12.0257L10.6965 13.2141C8.87092 12.2396 7.7464 11.1154 6.78521 9.30354L7.93857 7.77039C8.23822 7.47114 8.3457 7.03401 8.21693 6.62385C7.95224 5.82213 7.81779 4.98093 7.81779 4.12343C7.81782 3.50396 7.31386 3 6.69443 3H4.12339C3.50396 3 3 3.50396 3 4.12339C3 11.2237 8.77638 17 15.8766 17C16.4961 17 17 16.496 17 15.8766V13.3127C17 12.6934 16.496 12.1894 15.8766 12.1894Z" fill="black"/>
</g>
<defs>
<clipPath id="clip0">
<rect width="14" height="14" fill="white" transform="translate(3 3)"/>
</clipPath>
</defs>
</svg>
