<svg width="84" height="20" viewBox="0 0 84 20" fill="none" xmlns="http://www.w3.org/2000/svg">
<path d="M9.26409 19.7037L1.90253 11.7154V19.7037H0V3.13574H1.90253V10.6627L9.03053 3.13574H11.4354L3.89848 11.183L11.6691 19.7037H9.26409Z" fill="#00BD94"/>
<path d="M22.8843 14L19.764 5.47724L16.6555 14H22.8843ZM23.5496 15.8089H15.9899L14.5642 19.7037H12.5449L18.7372 3.13574H20.8026L26.9947 19.7037H24.9755L23.5496 15.8089Z" fill="#00BD94"/>
<path d="M40.4396 3.13574V19.7037H38.8637L30.0998 6.76541V19.7037H28.1973V3.13574H29.7732L38.537 16.0623V3.13574H40.4396Z" fill="#00BD94"/>
<path d="M56.9469 11.4201C56.9469 7.6679 54.1076 4.70827 50.3799 4.70827C46.6525 4.70827 43.8129 7.6679 43.8129 11.4201C43.8129 15.1604 46.6525 18.1197 50.3799 18.1197C54.1076 18.1197 56.9469 15.1604 56.9469 11.4201ZM41.9219 11.4201C41.9219 6.66262 45.625 2.84033 50.3797 2.84033C55.1345 2.84033 58.8491 6.66262 58.8491 11.4201C58.8491 16.1654 55.1345 19.9998 50.3797 19.9998C45.6251 19.9998 41.9219 16.1654 41.9219 11.4201Z" fill="#00BD94"/>
<path d="M82.7557 15.2517C82.6074 15.2517 82.4602 15.1945 82.3474 15.0803L79.0874 11.7789C78.9791 11.6692 78.918 11.5206 78.918 11.3652C78.918 11.2098 78.9791 11.0613 79.0874 10.9516L82.3474 7.64944C82.573 7.42089 82.9385 7.42089 83.1641 7.64944C83.3896 7.878 83.3896 8.24822 83.1641 8.47672L80.3124 11.3652L83.1641 14.253C83.3896 14.4815 83.3896 14.8518 83.1641 15.0803C83.0513 15.1945 82.9035 15.2517 82.7557 15.2517Z" fill="#F04B6F"/>
<path d="M78.4016 19.6646C78.2538 19.6646 78.1061 19.6075 77.9933 19.4932L75.1422 16.6047L72.2905 19.4932C72.065 19.7217 71.6994 19.7217 71.4739 19.4932C71.2483 19.2647 71.2483 18.8945 71.4739 18.6659L74.7339 15.3638C74.9594 15.1353 75.3244 15.1353 75.5505 15.3638L78.8099 18.6659C79.0355 18.8945 79.0355 19.2647 78.8099 19.4932C78.6972 19.6075 78.5499 19.6646 78.4016 19.6646Z" fill="#00BD94"/>
<path d="M75.1665 7.56429C75.0187 7.56429 74.8709 7.50712 74.7581 7.39284L71.4992 4.09147C71.2737 3.86293 71.2737 3.49272 71.4992 3.26418C71.7248 3.03564 72.0904 3.03564 72.3159 3.26418L75.1665 6.1519L78.0181 3.26418C78.2448 3.0349 78.6098 3.03638 78.8348 3.26418C79.0603 3.49272 79.0603 3.86293 78.8348 4.09147L75.5748 7.39284C75.462 7.50712 75.3148 7.56429 75.1665 7.56429Z" fill="#00BD94"/>
<path d="M67.5521 15.2793C67.4038 15.2793 67.2566 15.2221 67.1438 15.1079C66.9182 14.8793 66.9182 14.5091 67.1438 14.2806L69.9954 11.3921L67.1438 8.50357C66.9182 8.27508 66.9182 7.90485 67.1438 7.6763C67.3693 7.44774 67.7349 7.44774 67.9604 7.6763L71.2204 10.9785C71.446 11.207 71.446 11.5772 71.2204 11.8057L67.9604 15.1079C67.8477 15.2221 67.6999 15.2793 67.5521 15.2793Z" fill="#00BD94"/>
<path d="M67.5755 19.6649C67.4278 19.6649 67.28 19.6078 67.1672 19.4936C66.9417 19.265 66.9417 18.8948 67.1672 18.6662L82.3494 3.28761C82.5749 3.05908 82.9399 3.05908 83.1661 3.28761C83.3916 3.51615 83.3916 3.88637 83.1661 4.11491L67.9839 19.4936C67.8711 19.6078 67.7239 19.6649 67.5755 19.6649Z" fill="#00BD94"/>
<path d="M82.7322 19.6211C82.5839 19.6211 82.4367 19.564 82.3239 19.4497L67.1789 4.10758C66.9534 3.87905 66.9534 3.50883 67.1789 3.28029C67.4045 3.05175 67.77 3.05175 67.9956 3.28029L83.1406 18.6224C83.3661 18.851 83.3661 19.2212 83.1406 19.4497C83.0278 19.564 82.88 19.6211 82.7322 19.6211Z" fill="#00BD94"/>
<path d="M22.4821 0.998604C22.3773 1.10473 22.2333 1.16991 22.0738 1.16991H17.4642C17.1452 1.16991 16.8867 0.908132 16.8867 0.584955C16.8867 0.261782 17.1452 0 17.4642 0H22.0738C22.3928 0 22.6512 0.261782 22.6512 0.584955C22.6512 0.746455 22.5868 0.892482 22.4821 0.998604Z" fill="#00BD94"/>
</svg>
