<?xml version="1.0" encoding="utf-8"?>
<!-- Generator: Adobe Illustrator 19.0.0, SVG Export Plug-In . SVG Version: 6.00 Build 0)  -->
<svg version="1.0" id="Layer_1" xmlns="http://www.w3.org/2000/svg" xmlns:xlink="http://www.w3.org/1999/xlink" x="0px" y="0px"
	 viewBox="0 0 141.7 200" enable-background="new 0 0 141.7 200" xml:space="preserve">
<g id="XMLID_2846_">
	<polygon id="XMLID_2844_" fill="#E24D26" points="12.9,183.9 0,39.3 141.7,39.3 128.8,183.9 70.8,200 	"/>
	<polygon id="XMLID_2843_" fill="#EF6529" points="70.8,187.7 117.7,174.7 128.8,51.1 70.8,51.1 	"/>
	<polygon id="XMLID_2842_" fill="#E9E9E9" points="70.8,104.8 47.4,104.8 45.8,86.6 70.8,86.6 70.8,68.9 70.8,68.9 26.4,68.9 
		26.8,73.6 31.2,122.5 70.8,122.5 	"/>
	<polygon id="XMLID_2841_" fill="#E9E9E9" points="70.8,150.8 70.8,150.9 51,145.5 49.8,131.4 40.2,131.4 31.9,131.4 34.4,159.2 
		70.8,169.3 70.8,169.3 	"/>
	<path id="XMLID_2840_" d="M13.2,0h9v8.9h8.2V0h9v27h-9v-9h-8.2v9h-9L13.2,0L13.2,0z"/>
	<path id="XMLID_2839_" d="M51.3,8.9h-7.9V0h24.9v8.9h-7.9v18h-9L51.3,8.9L51.3,8.9z"/>
	<path id="XMLID_2838_" d="M72.2,0h9.4l5.8,9.5L93.2,0h9.4v27h-9V13.6l-6.2,9.6h-0.2L81,13.6V27h-8.8V0z"/>
	<path id="XMLID_2837_" d="M107.1,0h9v18.1h12.7V27h-21.7V0z"/>
	<polygon id="XMLID_2836_" fill="#FFFFFF" points="70.8,104.8 70.8,122.5 92.6,122.5 90.6,145.5 70.8,150.9 70.8,169.3 107.2,159.2 
		107.4,156.2 111.6,109.5 112,104.8 107.2,104.8 	"/>
	<polygon id="XMLID_2835_" fill="#FFFFFF" points="70.8,68.9 70.8,79.9 70.8,86.6 70.8,86.6 113.6,86.6 113.6,86.6 113.6,86.6 
		114,82.6 114.8,73.6 115.2,68.9 	"/>
</g>
</svg>
