<svg width="100" height="100" xmlns="http://www.w3.org/2000/svg">

 <g>
  <title>background</title>
  <rect fill="none" id="canvas_background" height="102" width="102" y="-1" x="-1"/>
 </g>
 <g>
  <title>Layer 1</title>
  <g stroke="null" id="svg_1" fill="#764ABC">
   <path stroke="null" id="svg_2" d="m69.222576,68.76534c3.676511,-0.380329 6.465589,-3.549735 6.338813,-7.353023c-0.126776,-3.803288 -3.296183,-6.845918 -7.09947,-6.845918l-0.253553,0c-3.930064,0.126776 -6.972694,3.422959 -6.845918,7.353023c0.126776,1.901644 0.887434,3.549735 2.02842,4.690721c-4.310393,8.494009 -10.902758,14.706046 -20.791306,19.903872c-6.719142,3.549735 -13.691836,4.817498 -20.66453,3.930064c-5.704931,-0.760658 -10.1421,-3.296183 -12.931178,-7.479799c-4.05684,-6.212037 -4.437169,-12.931178 -1.01421,-19.65032c2.408749,-4.817498 6.212037,-8.367233 8.620785,-10.1421c-0.507105,-1.648091 -1.267763,-4.437169 -1.648091,-6.465589c-18.382557,13.311507 -16.480913,31.313735 -10.902758,39.807744c4.183616,6.338813 12.677626,10.268877 22.059068,10.268877c2.535525,0 5.07105,-0.253553 7.606575,-0.887434c16.227361,-3.169406 28.524657,-12.804402 35.497351,-27.130119z"/>
   <path stroke="null" id="svg_3" d="m91.535197,53.045085c-9.634995,-11.283087 -23.833936,-17.495123 -40.061297,-17.495123l-2.02842,0c-1.140986,-2.281973 -3.549735,-3.803288 -6.212037,-3.803288l-0.253553,0c-3.930064,0.126776 -6.972694,3.422959 -6.845918,7.353023c0.126776,3.803288 3.296183,6.845918 7.09947,6.845918l0.253553,0c2.789078,-0.126776 5.197826,-1.901644 6.212037,-4.310393l2.281973,0c9.634995,0 18.762886,2.789078 27.003342,8.240457c6.338813,4.183616 10.902758,9.634995 13.438283,16.227361c2.155196,5.324603 2.02842,10.522429 -0.253553,14.959598c-3.549735,6.719142 -9.508219,10.395653 -17.368347,10.395653c-5.07105,0 -9.888548,-1.521315 -12.424073,-2.662301c-1.394539,1.267763 -3.930064,3.296183 -5.704931,4.563945c5.451379,2.535525 11.029534,3.930064 16.354137,3.930064c12.170521,0 21.171635,-6.719142 24.594594,-13.438283c3.676511,-7.353023 3.422959,-20.030648 -6.08526,-30.80663z"/>
   <path stroke="null" id="svg_4" d="m27.132859,70.920537c0.126776,3.803288 3.296183,6.845918 7.09947,6.845918l0.253553,0c3.930064,-0.126776 6.972694,-3.422959 6.845918,-7.353023c-0.126776,-3.803288 -3.296183,-6.845918 -7.09947,-6.845918l-0.253553,0c-0.253553,0 -0.633881,0 -0.887434,0.126776c-5.197826,-8.620785 -7.353023,-18.002228 -6.592365,-28.144329c0.507105,-7.606575 3.04263,-14.198941 7.479799,-19.65032c3.676511,-4.690721 10.775982,-6.972694 15.593479,-7.09947c13.438283,-0.253553 19.143215,16.480913 19.523543,23.200055c1.648091,0.380329 4.437169,1.267763 6.338813,1.901644c-1.521315,-20.537753 -14.198941,-31.186959 -26.369461,-31.186959c-11.409863,0 -21.932292,8.240457 -26.115909,20.410977c-5.831708,16.227361 -2.02842,31.82084 5.07105,44.118137c-0.633881,0.887434 -1.01421,2.281973 -0.887434,3.676511z"/>
  </g>
 </g>
</svg>