<?xml version="1.0" encoding="utf-8"?>
<!-- Generator: Adobe Illustrator 19.0.0, SVG Export Plug-In . SVG Version: 6.00 Build 0)  -->
<svg version="1.0" id="Layer_1" xmlns="http://www.w3.org/2000/svg" xmlns:xlink="http://www.w3.org/1999/xlink" x="0px" y="0px"
	 viewBox="0 0 200 150" enable-background="new 0 0 200 150" xml:space="preserve">
<path id="XMLID_2852_" fill="#CB6797" d="M172.2,86.2c-7,0-13,1.7-18.1,4.2c-1.9-3.7-3.7-7-4.1-9.4c-0.4-2.8-0.8-4.5-0.4-7.9
	s2.4-8.1,2.4-8.5s-0.4-2.1-4.5-2.1s-7.5,0.8-7.9,1.8c-0.4,1.1-1.2,3.5-1.7,6c-0.7,3.7-8,16.7-12.2,23.5c-1.4-2.7-2.5-5-2.8-6.9
	c-0.4-2.8-0.8-4.5-0.4-7.9c0.4-3.4,2.4-8.1,2.4-8.5c0-0.4-0.4-2.1-4.5-2.1c-4,0-7.5,0.8-7.9,1.8c-0.4,1.1-0.8,3.5-1.7,6
	c-0.8,2.4-10.6,24.2-13.2,29.8c-1.3,2.9-2.4,5.2-3.3,6.8l0,0c0,0,0,0.1-0.1,0.3c-0.7,1.4-1.1,2.1-1.1,2.1s0,0,0,0
	c-0.5,1-1.1,1.9-1.4,1.9c-0.2,0-0.6-2.6,0.1-6.2c1.5-7.6,4.9-19.3,4.9-19.7c0-0.2,0.7-2.3-2.3-3.3c-2.8-1.1-3.9,0.7-4.1,0.7
	s-0.4,0.6-0.4,0.6s3.2-13.2-6.1-13.2c-5.8,0-13.7,6.3-17.7,12c-2.5,1.4-7.8,4.2-13.4,7.3c-2.2,1.2-4.4,2.4-6.5,3.5
	c-0.1-0.1-0.3-0.3-0.4-0.5C34.8,86.4,14.1,78,15,61.9c0.3-5.8,2.3-21.2,39.7-39.8c30.8-15.2,55.2-11,59.5-1.6
	c6.1,13.3-13.1,38-44.9,41.6c-12.1,1.4-18.5-3.3-20.1-5.1c-1.7-1.8-1.9-1.9-2.6-1.6c-1,0.5-0.4,2.2,0,3.1c0.9,2.5,4.9,6.9,11.5,9
	c5.8,1.9,20.1,3,37.3-3.7c19.3-7.5,34.3-28.2,29.9-45.5C120.8,0.7,91.6-5.1,63.9,4.8c-16.4,5.8-34.3,15.1-47.1,27
	C1.6,46-0.8,58.4,0.2,63.6C3.7,82,29.1,94,39.3,102.9c-0.5,0.3-1,0.5-1.4,0.8c-5.1,2.5-24.4,12.6-29.3,23.3
	c-5.5,12.1,0.9,20.8,5.1,22c13,3.6,26.4-2.9,33.6-13.6s6.3-24.7,3-31.1c0-0.1-0.1-0.1-0.1-0.2c1.3-0.8,2.7-1.6,4-2.3
	c2.6-1.5,5.2-3,7.3-4.1c-1.2,3.4-2.2,7.5-2.6,13.3c-0.5,6.9,2.3,15.8,6,19.3c1.6,1.5,3.6,1.6,4.8,1.6c4.3,0,6.2-3.6,8.4-7.8
	c2.6-5.2,5-11.2,5-11.2s-3,16.3,5.1,16.3c2.9,0,5.9-3.8,7.2-5.7c0,0,0,0,0,0s0.1-0.1,0.2-0.4c0.3-0.5,0.5-0.8,0.5-0.8s0,0,0-0.1
	c1.2-2,3.8-6.7,7.7-14.4c5-9.9,9.9-22.4,9.9-22.4s0.4,3,1.9,8.1c0.9,3,2.7,6.2,4.2,9.4c-1.2,1.6-1.9,2.6-1.9,2.6s0,0,0,0
	c-0.9,1.2-2,2.6-3.1,3.9c-4,4.7-8.7,10.2-9.4,11.8c-0.8,1.9-0.6,3.2,0.9,4.3c1.1,0.8,3,0.9,4.9,0.8c3.6-0.3,6.1-1.1,7.3-1.7
	c1.9-0.7,4.2-1.8,6.3-3.3c3.9-2.9,6.3-7,6.1-12.5c-0.1-3-1.1-6-2.3-8.8c0.4-0.5,0.7-1,1.1-1.5c6.2-9,11-18.9,11-18.9s0.4,3,1.9,8.1
	c0.7,2.6,2.2,5.3,3.5,8c-5.8,4.7-9.4,10.2-10.7,13.8c-2.3,6.6-0.5,9.6,2.9,10.3c1.5,0.3,3.7-0.4,5.3-1.1c2-0.7,4.5-1.8,6.8-3.5
	c3.9-2.9,7.7-6.9,7.5-12.3c-0.1-2.5-0.8-4.9-1.7-7.3c4.9-2,11.3-3.2,19.4-2.2c17.4,2,20.8,12.9,20.2,17.5c-0.7,4.6-4.3,7.1-5.5,7.8
	c-1.2,0.8-1.6,1-1.5,1.6c0.1,0.8,0.7,0.8,1.8,0.6c1.4-0.3,9.1-3.7,9.5-12.1C200.5,97.8,190.3,86.1,172.2,86.2z M38.1,131.4
	c-5.8,6.3-13.8,8.7-17.3,6.6c-3.7-2.2-2.3-11.4,4.8-18.1c4.3-4.1,9.9-7.8,13.6-10.1c0.8-0.5,2.1-1.2,3.6-2.2
	c0.3-0.1,0.4-0.2,0.4-0.2l0,0c0.3-0.2,0.6-0.4,0.9-0.5C46.6,116.5,44.1,124.8,38.1,131.4z M80.1,102.9c-2,4.9-6.2,17.4-8.8,16.7
	c-2.2-0.6-3.5-10.1-0.4-19.5c1.6-4.7,4.9-10.3,6.8-12.5c3.1-3.5,6.6-4.7,7.5-3.3C86.2,86.2,81.3,99.8,80.1,102.9z M114.8,119.5
	c-0.8,0.4-1.6,0.7-2,0.5c-0.3-0.1,0.4-0.7,0.4-0.7s4.3-4.7,6.1-6.8c1-1.2,2.2-2.7,3.4-4.3c0,0.1,0,0.3,0,0.5
	C122.6,114.2,117.2,117.9,114.8,119.5z M141.5,113.4c-0.6-0.4-0.5-1.9,1.6-6.5c0.8-1.8,2.7-4.8,6-7.7c0.4,1.2,0.6,2.3,0.6,3.4
	C149.6,109.6,144.5,112.3,141.5,113.4z"/>
</svg>
